<?xml version="1.0" encoding="UTF-8" standalone="no" ?>
<!DOCTYPE svg PUBLIC "-//W3C//DTD SVG 1.1//EN" "http://www.w3.org/Graphics/SVG/1.1/DTD/svg11.dtd">
<svg xmlns="http://www.w3.org/2000/svg" xmlns:xlink="http://www.w3.org/1999/xlink" version="1.1" width="48" height="48" viewBox="0 0 48 48" xml:space="preserve">
<desc>Created with Fabric.js 4.6.0</desc>
<defs>
</defs>
<g transform="matrix(1 0 0 1 24 23.95)" id="7ZsCOeRfbcLQ2XTNACHpj"  >
<path style="stroke: none; stroke-width: 1; stroke-dasharray: none; stroke-linecap: butt; stroke-dashoffset: 0; stroke-linejoin: miter; stroke-miterlimit: 4; fill: rgb(255,255,255); fill-rule: nonzero; opacity: 1;" vector-effect="non-scaling-stroke"  transform=" translate(0, 0)" d="M 15.8 18 L 2.6500000000000004 4.85 C 1.6500000000000004 5.71667 0.4833300000000005 6.3916699999999995 -0.8499999999999996 6.875 C -2.1833299999999998 7.35833 -3.5999999999999996 7.6 -5.1 7.6 C -8.7 7.6 -11.75 6.35 -14.25 3.8499999999999996 C -16.75 1.3499999999999996 -18 -1.6666700000000008 -18 -5.200000000000001 C -18 -8.73333 -16.75 -11.75 -14.25 -14.250000000000002 C -11.75 -16.75 -8.71667 -18 -5.15 -18 C -1.6166700000000005 -18 1.3916699999999995 -16.75 3.875 -14.25 C 6.3583300000000005 -11.75 7.6 -8.733329999999999 7.6 -5.199999999999999 C 7.6 -3.7666699999999995 7.36667 -2.3833299999999995 6.8999999999999995 -1.049999999999999 C 6.43333 0.28333000000000097 5.73333 1.5333300000000012 4.799999999999999 2.700000000000001 L 18 15.8 z M -5.15 4.6 C -2.45 4.6 -0.15000000000000036 3.6416699999999995 1.75 1.7249999999999996 C 3.65 -0.19167000000000045 4.6 -2.5 4.6 -5.2 C 4.6 -7.9 3.6499999999999995 -10.20833 1.7499999999999996 -12.125 C -0.15000000000000036 -14.04167 -2.4500000000000006 -15 -5.15 -15 C -7.883330000000001 -15 -10.20833 -14.04167 -12.125 -12.125 C -14.04167 -10.20833 -15 -7.9 -15 -5.2 C -15 -2.5 -14.04167 -0.19167000000000023 -12.125 1.7249999999999996 C -10.20833 3.6416699999999995 -7.88333 4.6 -5.15 4.6 z" stroke-linecap="round" />
</g>
</svg>